<svg width="91" height="25" viewBox="0 0 91 25" fill="none" xmlns="http://www.w3.org/2000/svg">
<path d="M37.428 4.4V17H36.132V5.552H33.162V4.4H37.428ZM49.0439 15.848V17H40.2059V16.082L45.4439 10.952C46.1039 10.304 46.5479 9.746 46.7759 9.278C47.0159 8.798 47.1359 8.318 47.1359 7.838C47.1359 7.094 46.8779 6.518 46.3619 6.11C45.8579 5.69 45.1319 5.48 44.1839 5.48C42.7079 5.48 41.5619 5.948 40.7459 6.884L39.8279 6.092C40.3199 5.516 40.9439 5.072 41.6999 4.76C42.4679 4.448 43.3319 4.292 44.2919 4.292C45.5759 4.292 46.5899 4.598 47.3339 5.21C48.0899 5.81 48.4679 6.638 48.4679 7.694C48.4679 8.342 48.3239 8.966 48.0359 9.566C47.7479 10.166 47.2019 10.856 46.3979 11.636L42.1139 15.848H49.0439ZM57.8884 10.394C58.6804 10.658 59.2864 11.054 59.7064 11.582C60.1384 12.11 60.3544 12.746 60.3544 13.49C60.3544 14.222 60.1564 14.864 59.7604 15.416C59.3644 15.956 58.7944 16.376 58.0504 16.676C57.3184 16.964 56.4544 17.108 55.4584 17.108C53.9464 17.108 52.7584 16.784 51.8944 16.136C51.0304 15.488 50.5984 14.606 50.5984 13.49C50.5984 12.734 50.8024 12.098 51.2104 11.582C51.6304 11.054 52.2364 10.658 53.0284 10.394C52.3804 10.142 51.8884 9.782 51.5524 9.314C51.2164 8.834 51.0484 8.27 51.0484 7.622C51.0484 6.602 51.4444 5.792 52.2364 5.192C53.0404 4.592 54.1144 4.292 55.4584 4.292C56.3464 4.292 57.1204 4.43 57.7804 4.706C58.4524 4.97 58.9744 5.354 59.3464 5.858C59.7184 6.362 59.9044 6.95 59.9044 7.622C59.9044 8.27 59.7304 8.834 59.3824 9.314C59.0344 9.782 58.5364 10.142 57.8884 10.394ZM52.3444 7.658C52.3444 8.354 52.6204 8.906 53.1724 9.314C53.7244 9.722 54.4864 9.926 55.4584 9.926C56.4304 9.926 57.1924 9.722 57.7444 9.314C58.3084 8.906 58.5904 8.36 58.5904 7.676C58.5904 6.968 58.3024 6.41 57.7264 6.002C57.1624 5.594 56.4064 5.39 55.4584 5.39C54.4984 5.39 53.7364 5.594 53.1724 6.002C52.6204 6.41 52.3444 6.962 52.3444 7.658ZM55.4584 16.01C56.5744 16.01 57.4444 15.782 58.0684 15.326C58.7044 14.87 59.0224 14.252 59.0224 13.472C59.0224 12.692 58.7044 12.08 58.0684 11.636C57.4444 11.18 56.5744 10.952 55.4584 10.952C54.3544 10.952 53.4844 11.18 52.8484 11.636C52.2244 12.08 51.9124 12.692 51.9124 13.472C51.9124 14.264 52.2244 14.888 52.8484 15.344C53.4724 15.788 54.3424 16.01 55.4584 16.01ZM75.0138 15.92C76.5138 15.92 77.7498 15.416 78.7218 14.408L79.5858 15.254C79.0218 15.866 78.3438 16.328 77.5518 16.64C76.7598 16.952 75.8898 17.108 74.9418 17.108C73.8978 17.108 72.9318 16.91 72.0438 16.514C71.1558 16.106 70.4058 15.542 69.7938 14.822C69.1938 14.102 68.7798 13.274 68.5518 12.338H66.4638V11.546H68.4078C68.3718 11.27 68.3538 10.988 68.3538 10.7C68.3538 10.4 68.3718 10.118 68.4078 9.854H66.4638V9.062H68.5518C68.7798 8.126 69.1938 7.298 69.7938 6.578C70.4058 5.858 71.1558 5.3 72.0438 4.904C72.9318 4.496 73.8978 4.292 74.9418 4.292C75.8898 4.292 76.7598 4.448 77.5518 4.76C78.3438 5.072 79.0218 5.528 79.5858 6.128L78.7218 6.974C77.7378 5.978 76.5018 5.48 75.0138 5.48C73.7898 5.48 72.7158 5.81 71.7918 6.47C70.8798 7.13 70.2618 7.994 69.9378 9.062H76.1118V9.854H69.7398C69.7038 10.118 69.6858 10.4 69.6858 10.7C69.6858 10.988 69.7038 11.27 69.7398 11.546H76.1118V12.338H69.9378C70.2618 13.406 70.8798 14.27 71.7918 14.93C72.7158 15.59 73.7898 15.92 75.0138 15.92Z" fill="#262320"/>
<path d="M86.5 13L82.6029 9.25L90.3971 9.25L86.5 13Z" fill="#262320"/>
<path d="M17.6445 8.06815L15.9545 1.39397C15.8641 1.08308 15.6631 0.821676 15.394 0.665085C15.1249 0.508494 14.8088 0.469013 14.5127 0.555C14.2106 0.640238 13.9526 0.848865 13.7954 1.1352C13.6381 1.42153 13.5943 1.76222 13.6736 2.08267L15.1982 8.06815H10.8018L12.3264 2.04511C12.3959 1.72891 12.3468 1.39645 12.1894 1.11787C12.032 0.839295 11.7787 0.636372 11.4828 0.551908C11.187 0.467444 10.8717 0.508043 10.6035 0.665142C10.3354 0.822242 10.1353 1.08356 10.0455 1.39397L8.35545 8.06815H0V10.4473L3.47455 24.3466H22.5255L26 10.7729V8.06815H17.6445ZM20.7173 21.8423H5.28273L2.43455 10.5725H23.5655L20.7173 21.8423ZM8.04818 12.6762C7.78159 12.686 7.52362 12.7788 7.30642 12.9429C7.08923 13.107 6.92241 13.3351 6.82675 13.599C6.73109 13.8628 6.71083 14.1507 6.76849 14.4266C6.82615 14.7026 6.95918 14.9545 7.151 15.1509C7.34282 15.3473 7.58495 15.4795 7.84722 15.5312C8.10948 15.5828 8.38029 15.5515 8.62589 15.4412C8.87149 15.3309 9.08102 15.1464 9.22837 14.9108C9.37573 14.6752 9.45438 14.3989 9.45455 14.1162C9.45466 13.9228 9.418 13.7314 9.34676 13.5533C9.27552 13.3753 9.17116 13.2143 9.03991 13.0799C8.90866 12.9455 8.7532 12.8405 8.58281 12.7711C8.41242 12.7018 8.2306 12.6695 8.04818 12.6762ZM17.9518 15.5813C18.3123 15.5813 18.658 15.4296 18.9128 15.1595C19.1677 14.8895 19.3109 14.5232 19.3109 14.1413C19.3109 13.7594 19.1677 13.3931 18.9128 13.123C18.658 12.853 18.3123 12.7013 17.9518 12.7013C17.5914 12.7013 17.2457 12.853 16.9908 13.123C16.7359 13.3931 16.5927 13.7594 16.5927 14.1413C16.5927 14.5232 16.7359 14.8895 16.9908 15.1595C17.2457 15.4296 17.5914 15.5813 17.9518 15.5813Z" fill="#262320"/>
</svg>
