<svg width="26" height="25" viewBox="0 0 26 25" fill="none" xmlns="http://www.w3.org/2000/svg">
<path d="M17.6445 8.06815L15.9545 1.39397C15.8641 1.08308 15.6631 0.821676 15.394 0.665085C15.1249 0.508494 14.8088 0.469013 14.5127 0.555C14.2106 0.640238 13.9526 0.848865 13.7954 1.1352C13.6381 1.42153 13.5943 1.76222 13.6736 2.08267L15.1982 8.06815H10.8018L12.3264 2.04511C12.3959 1.72891 12.3468 1.39645 12.1894 1.11787C12.032 0.839295 11.7787 0.636372 11.4828 0.551908C11.187 0.467444 10.8717 0.508043 10.6035 0.665142C10.3354 0.822242 10.1353 1.08356 10.0455 1.39397L8.35545 8.06815H0V10.4473L3.47455 24.3466H22.5255L26 10.7729V8.06815H17.6445ZM20.7173 21.8423H5.28273L2.43455 10.5725H23.5655L20.7173 21.8423ZM8.04818 12.6762C7.78159 12.686 7.52362 12.7788 7.30642 12.9429C7.08923 13.107 6.92241 13.3351 6.82675 13.599C6.73109 13.8628 6.71083 14.1507 6.76849 14.4266C6.82615 14.7026 6.95918 14.9545 7.151 15.1509C7.34282 15.3473 7.58495 15.4795 7.84722 15.5312C8.10948 15.5828 8.38029 15.5515 8.62589 15.4412C8.87149 15.3309 9.08102 15.1464 9.22837 14.9108C9.37573 14.6752 9.45438 14.3989 9.45455 14.1162C9.45466 13.9228 9.418 13.7314 9.34676 13.5533C9.27552 13.3753 9.17116 13.2143 9.03991 13.0799C8.90866 12.9455 8.7532 12.8405 8.58281 12.7711C8.41242 12.7018 8.2306 12.6695 8.04818 12.6762ZM17.9518 15.5813C18.3123 15.5813 18.658 15.4296 18.9128 15.1595C19.1677 14.8895 19.3109 14.5232 19.3109 14.1413C19.3109 13.7594 19.1677 13.3931 18.9128 13.123C18.658 12.853 18.3123 12.7013 17.9518 12.7013C17.5914 12.7013 17.2457 12.853 16.9908 13.123C16.7359 13.3931 16.5927 13.7594 16.5927 14.1413C16.5927 14.5232 16.7359 14.8895 16.9908 15.1595C17.2457 15.4296 17.5914 15.5813 17.9518 15.5813Z" fill="#262320"/>
</svg>
