<svg width="146" height="29" viewBox="0 0 146 29" fill="none" xmlns="http://www.w3.org/2000/svg">
<path d="M59.46 11.48V22H58.1V20.08C57.7267 20.72 57.2133 21.22 56.56 21.58C55.9067 21.9267 55.16 22.1 54.32 22.1C52.9467 22.1 51.86 21.72 51.06 20.96C50.2733 20.1867 49.88 19.06 49.88 17.58V11.48H51.3V17.44C51.3 18.5467 51.5733 19.3867 52.12 19.96C52.6667 20.5333 53.4467 20.82 54.46 20.82C55.5667 20.82 56.44 20.4867 57.08 19.82C57.72 19.14 58.04 18.2 58.04 17V11.48H59.46ZM69.817 22.12C68.4304 22.12 67.177 21.8133 66.057 21.2C64.9504 20.5867 64.077 19.74 63.437 18.66C62.8104 17.5667 62.497 16.3467 62.497 15C62.497 13.6533 62.8104 12.44 63.437 11.36C64.077 10.2667 64.957 9.41333 66.077 8.8C67.197 8.18667 68.4504 7.88 69.837 7.88C70.877 7.88 71.837 8.05333 72.717 8.4C73.597 8.74667 74.3437 9.25333 74.957 9.92L74.017 10.86C72.9237 9.75333 71.5437 9.2 69.877 9.2C68.7704 9.2 67.7637 9.45333 66.857 9.96C65.9504 10.4667 65.237 11.16 64.717 12.04C64.2104 12.92 63.957 13.9067 63.957 15C63.957 16.0933 64.2104 17.08 64.717 17.96C65.237 18.84 65.9504 19.5333 66.857 20.04C67.7637 20.5467 68.7704 20.8 69.877 20.8C71.557 20.8 72.937 20.24 74.017 19.12L74.957 20.06C74.3437 20.7267 73.5904 21.24 72.697 21.6C71.817 21.9467 70.857 22.12 69.817 22.12ZM81.6433 22.1C80.6299 22.1 79.7166 21.8733 78.9033 21.42C78.0899 20.9533 77.4499 20.3133 76.9833 19.5C76.5166 18.6867 76.2833 17.7667 76.2833 16.74C76.2833 15.7133 76.5166 14.7933 76.9833 13.98C77.4499 13.1667 78.0899 12.5333 78.9033 12.08C79.7166 11.6267 80.6299 11.4 81.6433 11.4C82.6566 11.4 83.5699 11.6267 84.3833 12.08C85.1966 12.5333 85.8299 13.1667 86.2833 13.98C86.7499 14.7933 86.9833 15.7133 86.9833 16.74C86.9833 17.7667 86.7499 18.6867 86.2833 19.5C85.8299 20.3133 85.1966 20.9533 84.3833 21.42C83.5699 21.8733 82.6566 22.1 81.6433 22.1ZM81.6433 20.84C82.3899 20.84 83.0566 20.6733 83.6433 20.34C84.2433 19.9933 84.7099 19.5067 85.0433 18.88C85.3766 18.2533 85.5433 17.54 85.5433 16.74C85.5433 15.94 85.3766 15.2267 85.0433 14.6C84.7099 13.9733 84.2433 13.4933 83.6433 13.16C83.0566 12.8133 82.3899 12.64 81.6433 12.64C80.8966 12.64 80.2233 12.8133 79.6233 13.16C79.0366 13.4933 78.5699 13.9733 78.2233 14.6C77.8899 15.2267 77.7233 15.94 77.7233 16.74C77.7233 17.54 77.8899 18.2533 78.2233 18.88C78.5699 19.5067 79.0366 19.9933 79.6233 20.34C80.2233 20.6733 80.8966 20.84 81.6433 20.84ZM103.002 11.4C104.322 11.4 105.356 11.78 106.102 12.54C106.862 13.3 107.242 14.42 107.242 15.9V22H105.822V16.04C105.822 14.9467 105.556 14.1133 105.022 13.54C104.502 12.9667 103.762 12.68 102.802 12.68C101.709 12.68 100.849 13.02 100.222 13.7C99.5957 14.3667 99.2823 15.2933 99.2823 16.48V22H97.8623V16.04C97.8623 14.9467 97.5957 14.1133 97.0623 13.54C96.5423 12.9667 95.7957 12.68 94.8223 12.68C93.7423 12.68 92.8823 13.02 92.2423 13.7C91.6157 14.3667 91.3023 15.2933 91.3023 16.48V22H89.8823V11.48H91.2423V13.4C91.6157 12.76 92.1357 12.2667 92.8023 11.92C93.469 11.5733 94.2357 11.4 95.1023 11.4C95.9823 11.4 96.7423 11.5867 97.3823 11.96C98.0357 12.3333 98.5223 12.8867 98.8423 13.62C99.229 12.9267 99.7823 12.3867 100.502 12C101.236 11.6 102.069 11.4 103.002 11.4Z" fill="#262320"/>
<rect x="3.66003" y="24.6064" width="14.3117" height="1.75758" rx="0.878788" fill="#262320"/>
<rect x="9.6861" y="7.03048" width="2.25974" height="17.5758" fill="#262320"/>
<circle cx="10.8159" cy="13.6844" r="2.38528" fill="#262320"/>
<path d="M20.8593 7.1562H1.02377C0.822905 6.05144 1.94441 5.35678 2.53026 5.14754V3.13888C2.53026 2.73715 2.94873 2.63672 3.15797 2.63672H18.474C19.177 2.63672 19.2691 3.13888 19.2272 3.38997V5.14754C20.4324 5.44884 20.8174 6.61219 20.8593 7.1562Z" fill="#262320" stroke="#262320"/>
<line x1="33.1652" y1="1.5299e-08" x2="33.1652" y2="29" stroke="#262320" stroke-width="0.7"/>
</svg>
