<svg width="27" height="19" viewBox="0 0 27 19" fill="none" xmlns="http://www.w3.org/2000/svg">
<path d="M1.10482e-06 9.50994C0.0181209 9.71635 0.104171 9.99191 0.24158 10.1465L7.4892 18.3912C7.80535 18.822 8.45719 18.8206 8.85837 18.4683C9.25956 18.1159 9.29014 17.4899 8.93873 17.1181L3.09533 10.4799L25.1251 10.4799C25.6587 10.4799 26.0914 10.0456 26.0914 9.50994C26.0914 8.97422 25.6587 8.53997 25.1251 8.53997L3.09533 8.53997L8.93872 1.90176C9.32217 1.53007 9.21433 0.892635 8.81314 0.540294C8.41196 0.187954 7.80534 0.213052 7.48919 0.628683L0.241572 8.8734C0.0478641 9.08403 0.0109054 9.3126 1.10482e-06 9.50994Z" fill="black"/>
</svg>
