<svg width="146" height="29" viewBox="0 0 146 29" fill="none" xmlns="http://www.w3.org/2000/svg">
<path d="M54.32 22.1C53.4267 22.1 52.6467 21.9333 51.98 21.6C51.3133 21.2667 50.7933 20.7667 50.42 20.1C50.06 19.4333 49.88 18.6 49.88 17.6V11.5H51.3V17.44C51.3 18.56 51.5733 19.4067 52.12 19.98C52.68 20.54 53.46 20.82 54.46 20.82C55.1933 20.82 55.8267 20.6733 56.36 20.38C56.9067 20.0733 57.32 19.6333 57.6 19.06C57.8933 18.4867 58.04 17.8 58.04 17V11.5H59.46V22H58.1V19.12L58.32 19.64C57.9867 20.4133 57.4667 21.02 56.76 21.46C56.0667 21.8867 55.2533 22.1 54.32 22.1ZM69.7975 22.12C68.7442 22.12 67.7708 21.9467 66.8775 21.6C65.9842 21.24 65.2108 20.74 64.5575 20.1C63.9042 19.46 63.3908 18.7067 63.0175 17.84C62.6575 16.9733 62.4775 16.0267 62.4775 15C62.4775 13.9733 62.6575 13.0267 63.0175 12.16C63.3908 11.2933 63.9042 10.54 64.5575 9.9C65.2242 9.26 66.0042 8.76667 66.8975 8.42C67.7908 8.06 68.7642 7.88 69.8175 7.88C70.8308 7.88 71.7842 8.05333 72.6775 8.4C73.5708 8.73333 74.3242 9.24 74.9375 9.92L73.9975 10.86C73.4242 10.2733 72.7908 9.85333 72.0975 9.6C71.4042 9.33333 70.6575 9.2 69.8575 9.2C69.0175 9.2 68.2375 9.34667 67.5175 9.64C66.7975 9.92 66.1708 10.3267 65.6375 10.86C65.1042 11.38 64.6842 11.9933 64.3775 12.7C64.0842 13.3933 63.9375 14.16 63.9375 15C63.9375 15.84 64.0842 16.6133 64.3775 17.32C64.6842 18.0133 65.1042 18.6267 65.6375 19.16C66.1708 19.68 66.7975 20.0867 67.5175 20.38C68.2375 20.66 69.0175 20.8 69.8575 20.8C70.6575 20.8 71.4042 20.6667 72.0975 20.4C72.7908 20.1333 73.4242 19.7067 73.9975 19.12L74.9375 20.06C74.3242 20.74 73.5708 21.2533 72.6775 21.6C71.7842 21.9467 70.8242 22.12 69.7975 22.12ZM81.6038 22.1C80.5904 22.1 79.6771 21.8733 78.8638 21.42C78.0638 20.9533 77.4304 20.32 76.9638 19.52C76.4971 18.7067 76.2638 17.78 76.2638 16.74C76.2638 15.6867 76.4971 14.76 76.9638 13.96C77.4304 13.16 78.0638 12.5333 78.8638 12.08C79.6638 11.6267 80.5771 11.4 81.6038 11.4C82.6438 11.4 83.5638 11.6267 84.3638 12.08C85.1771 12.5333 85.8104 13.16 86.2638 13.96C86.7304 14.76 86.9638 15.6867 86.9638 16.74C86.9638 17.78 86.7304 18.7067 86.2638 19.52C85.8104 20.32 85.1771 20.9533 84.3638 21.42C83.5504 21.8733 82.6304 22.1 81.6038 22.1ZM81.6038 20.84C82.3638 20.84 83.0371 20.6733 83.6238 20.34C84.2104 19.9933 84.6704 19.5133 85.0038 18.9C85.3504 18.2733 85.5238 17.5533 85.5238 16.74C85.5238 15.9133 85.3504 15.1933 85.0038 14.58C84.6704 13.9667 84.2104 13.4933 83.6238 13.16C83.0371 12.8133 82.3704 12.64 81.6238 12.64C80.8771 12.64 80.2104 12.8133 79.6238 13.16C79.0371 13.4933 78.5704 13.9667 78.2238 14.58C77.8771 15.1933 77.7038 15.9133 77.7038 16.74C77.7038 17.5533 77.8771 18.2733 78.2238 18.9C78.5704 19.5133 79.0371 19.9933 79.6238 20.34C80.2104 20.6733 80.8704 20.84 81.6038 20.84ZM102.983 11.4C103.836 11.4 104.576 11.5667 105.203 11.9C105.843 12.22 106.336 12.7133 106.683 13.38C107.043 14.0467 107.223 14.8867 107.223 15.9V22H105.803V16.04C105.803 14.9333 105.536 14.1 105.003 13.54C104.483 12.9667 103.743 12.68 102.783 12.68C102.063 12.68 101.436 12.8333 100.903 13.14C100.383 13.4333 99.9761 13.8667 99.6828 14.44C99.4028 15 99.2628 15.68 99.2628 16.48V22H97.8428V16.04C97.8428 14.9333 97.5761 14.1 97.0428 13.54C96.5095 12.9667 95.7628 12.68 94.8028 12.68C94.0961 12.68 93.4761 12.8333 92.9428 13.14C92.4095 13.4333 91.9961 13.8667 91.7028 14.44C91.4228 15 91.2828 15.68 91.2828 16.48V22H89.8628V11.5H91.2228V14.34L91.0028 13.84C91.3228 13.08 91.8361 12.4867 92.5428 12.06C93.2628 11.62 94.1095 11.4 95.0828 11.4C96.1095 11.4 96.9828 11.66 97.7028 12.18C98.4228 12.6867 98.8895 13.4533 99.1028 14.48L98.5428 14.26C98.8495 13.4067 99.3895 12.72 100.163 12.2C100.949 11.6667 101.889 11.4 102.983 11.4Z" fill="#262320"/>
<rect x="3.66003" y="24.6064" width="14.3117" height="1.75758" rx="0.878788" fill="#262320"/>
<rect x="9.6861" y="7.03027" width="2.25974" height="17.5758" fill="#262320"/>
<circle cx="10.8159" cy="13.6846" r="2.38528" fill="#262320"/>
<path d="M20.8593 7.1562H1.02377C0.822905 6.05144 1.94441 5.35678 2.53026 5.14754V3.13888C2.53026 2.73715 2.94873 2.63672 3.15797 2.63672H18.474C19.177 2.63672 19.2691 3.13888 19.2272 3.38997V5.14754C20.4324 5.44884 20.8174 6.61219 20.8593 7.1562Z" fill="#262320" stroke="#262320"/>
<line x1="33.1652" y1="1.5299e-08" x2="33.1652" y2="29" stroke="#262320" stroke-width="0.7"/>
</svg>
