<svg width="27" height="19" viewBox="0 0 27 19" fill="none" xmlns="http://www.w3.org/2000/svg">
<path d="M27 9.50911C26.9819 9.3027 26.8958 9.02713 26.7584 8.87257L19.5108 0.627822C19.1947 0.197002 18.5428 0.198421 18.1416 0.550771C17.7404 0.903121 17.7099 1.52919 18.0613 1.9009L23.9047 8.53914H1.87492C1.34125 8.53914 0.908569 8.9734 0.908569 9.50911C0.908569 10.0448 1.34125 10.4791 1.87492 10.4791H23.9047L18.0613 17.1173C17.6778 17.489 17.7857 18.1264 18.1869 18.4788C18.588 18.8311 19.1947 18.806 19.5108 18.3904L26.7584 10.1456C26.9521 9.93502 26.9891 9.70645 27 9.50911Z" fill="black"/>
</svg>
