<svg width="25" height="25" viewBox="0 0 25 25" fill="none" xmlns="http://www.w3.org/2000/svg">
<circle opacity="0.6" cx="12.5" cy="12.5" r="12.5" fill="#ACA388"/>
<path d="M20 8.30666C19.4852 8.52146 18.9249 8.67604 18.3478 8.73625C18.9469 8.39199 19.3956 7.84811 19.6097 7.20666C19.0474 7.53014 18.4315 7.75696 17.7892 7.87708C17.5208 7.59952 17.1961 7.3784 16.8354 7.2275C16.4747 7.07661 16.0858 6.99917 15.6928 7.00001C14.1029 7.00001 12.8242 8.24646 12.8242 9.77604C12.8242 9.99083 12.8511 10.2056 12.8948 10.4123C10.5141 10.2919 8.39082 9.19187 6.97921 7.5077C6.722 7.93259 6.58721 8.41638 6.58887 8.90873C6.58887 9.87205 7.0953 10.7215 7.86756 11.221C7.41246 11.2037 6.96801 11.0827 6.57036 10.8679V10.9021C6.57036 12.251 7.5563 13.3689 8.87033 13.626C8.62361 13.688 8.3698 13.7197 8.11489 13.7204C7.92813 13.7204 7.75147 13.7025 7.57313 13.6781C7.93655 14.7781 8.99483 15.5771 10.255 15.6031C9.26908 16.35 8.03413 16.7893 6.69319 16.7893C6.45259 16.7893 6.2305 16.7812 6 16.7552C7.27196 17.5444 8.78116 18 10.4064 18C15.6827 18 18.5699 13.7725 18.5699 10.1031C18.5699 9.9827 18.5699 9.86228 18.5615 9.74187C19.1201 9.34646 19.6097 8.85666 20 8.30666Z" fill="white"/>
</svg>
