<svg width="25" height="25" viewBox="0 0 25 25" fill="none" xmlns="http://www.w3.org/2000/svg">
<circle opacity="0.6" cx="12.5" cy="12.5" r="12.5" fill="#ACA388"/>
<path d="M18.7468 10.249C18.6785 10.0074 18.5448 9.78707 18.3591 9.61014C18.1733 9.43321 17.942 9.30585 17.6883 9.24082C16.7541 9 13 9 13 9C13 9 9.24592 9 8.31168 9.24082C8.058 9.30585 7.8267 9.43321 7.64093 9.61014C7.45517 9.78707 7.32145 10.0074 7.25317 10.249C7.07872 11.1564 6.99407 12.0775 7.00032 13C6.99407 13.9225 7.07872 14.8436 7.25317 15.751C7.32145 15.9926 7.45517 16.2129 7.64093 16.3899C7.8267 16.5668 8.058 16.6941 8.31168 16.7592C9.24592 17 13 17 13 17C13 17 16.7541 17 17.6883 16.7592C17.942 16.6941 18.1733 16.5668 18.3591 16.3899C18.5448 16.2129 18.6785 15.9926 18.7468 15.751C18.9213 14.8436 19.0059 13.9225 18.9997 13C19.0059 12.0775 18.9213 11.1564 18.7468 10.249ZM11.8001 14.7143V11.2857L14.9156 13L11.8001 14.7143Z" fill="#EEEEEE"/>
</svg>
